{"title":"Prisoners of the Sun 2013 DVDRip x264 AC3-MiLLENiUM","uid":9302834,"size":781887784,"categoryP":"video","categoryS":"movies","magnet":"?xt=urn:btih:8872d0953037e17f2aea306f8e503f5c83ce2882&amp;dn=Prisoners+of+the+Sun+2013+DVDRip+x264+AC3-MiLLENiUM&amp;tr=udp%3A%2F%2Ftracker.openbittorrent.com%3A80&amp;tr=udp%3A%2F%2Fopen.demonii.com%3A1337&amp;tr=udp%3A%2F%2Ftracker.coppersurfer.tk%3A6969&amp;tr=udp%3A%2F%2Fexodus.desync.com%3A6969","seeders":0,"leechers":0,"uploader":"xxxlavalxxx","files":-1,"time":1386269903,"description":" &lt;a href=&quot;\nhttp://www.imdb.com/title/tt0496375/&quot; rel=&quot;nofollow&quot; target=&quot;_NEW&quot;&gt;\nhttp://www.imdb.com/title/tt0496375/&lt;/a&gt;\n\n\nA multinational expedition discovers a lost city beneath a pyramid, where they must stop the reawakened gods of ancient Egypt from initiating the apocalypse.\nA young American archaeological apprentice (Charvet) is drawn into a perilous expedition deep beneath the timeless sands of Egypt. Escaping death traps and ancient monsters, the expedition discovers a secret older than history, and a danger beyond imagination. The &quot;sleepers&quot; have awoken. The gods have arisen. And, the countdown to the end of the world has begun...\n\n\nDirector: Roger Christian\nWriters: Peter Atkins, Anthony Hickox\nStars: John Rhys-Davies, David Charvet, Emily Holmes \nGenres: Action | Adventure | Horror | Mystery\nCountry: USA | Germany\nLanguage: English\n\n\nPrisoners of the Sun 2013 DVDRip x264 AC3-MiLLENiUM                  \n\nGeneral\n\nSource...............: DVD5.PAL-MASTER [THANKS]\nIMDb Information.... : http://www.imdb.com/title/tt0496375/\nSample Included......: yes\n\nGeneral\nComplete name                            : Prisoners of the Sun 2013 DVDRip x264 AC3-MiLLENiUM.mkv\nFormat                                   : Matroska\nFormat version                           : Version 2\nFile size                                : 736 MiB\nDuration                                 : 1h 24mn\nOverall bit rate mode                    : Variable\nOverall bit rate                         : 1 221 Kbps\nEncoded date                             : UTC 2013-12-05 16:41:44\nWriting application                      : mkvmerge v6.5.0 ('Isn't she lovely') built on Oct 20 2013 12:50:05\nWriting library                          : libebml v1.3.0 + libmatroska v1.4.1\n\nVideo\nID                                       : 1\nFormat                                   : AVC\nFormat/Info                              : Advanced Video Codec\nFormat profile                           : &lt;a class=&quot;__cf_email__&quot; href=&quot;/cdn-cgi/l/email-protection&quot; data-cfemail=&quot;a5edccc2cde5e9918b94&quot;&gt;[email&amp;#160;protected]&lt;/a&gt;&lt;script data-cfhash='f9e31' type=&quot;text/javascript&quot;&gt;\n/* &lt;![CDATA[ */!function(){try{var t=&quot;currentScript&quot;in document?document.currentScript:function(){for(var t=document.getElementsByTagName(&quot;script&quot;),e=t.length;e--;)if(t[e].getAttribute(&quot;data-cfhash&quot;))return t[e]}();if(t&amp;&amp;t.previousSibling){var e,r,n,i,c=t.previousSibling,a=c.getAttribute(&quot;data-cfemail&quot;);if(a){for(e=&quot;&quot;,r=parseInt(a.substr(0,2),16),n=2;a.length-n;n+=2)i=parseInt(a.substr(n,2),16)^r,e+=String.fromCharCode(i);e=document.createTextNode(e),c.parentNode.replaceChild(e,c)}t.parentNode.removeChild(t);}}catch(u){}}()/* ]]&gt; */&lt;/script&gt;\nFormat settings, CABAC                   : Yes\nFormat settings, ReFrames                : 3 frames\nCodec ID                                 : V_MPEG4/ISO/AVC\nDuration                                 : 1h 24mn\nBit rate mode                            : Variable\nBit rate                                 : 812 Kbps\nMaximum bit rate                         : 40.0 Mbps\nWidth                                    : 720 pixels\nHeight                                   : 400 pixels\nDisplay aspect ratio                     : 16:9\nFrame rate mode                          : Constant\nFrame rate                               : 25.000 fps\nColor space                              : YUV\nChroma subsampling                       : 4:2:0\nBit depth                                : 8 bits\nScan type                                : Progressive\nBits/(Pixel*Frame)                       : 0.113\nStream size                              : 490 MiB (67%)\nWriting library                          : x264 core 140 r2377 1ca7bb9\n\nAudio\nID                                       : 2\nFormat                                   : AC-3\nFormat/Info                              : Audio Coding 3\nMode extension                           : CM (complete main)\nFormat settings, Endianness              : Big\nCodec ID                                 : A_AC3\nDuration                                 : 1h 24mn\nBit rate mode                            : Constant\nBit rate                                 : 384 Kbps\nChannel(s)                               : 6 channels\nChannel positions                        : Front: L C R, Side: L R, LFE\nSampling rate                            : 48.0 KHz\nBit depth                                : 16 bits\nCompression mode                         : Lossy\nStream size                              : 231 MiB (31%)\nLanguage                                 : English\nDefault                                  : Yes\nForced                                   : No\n\n\n\n\nscreens\n &lt;a href=&quot;\nhttp://i.imgur.com/71BDxwb.png&quot; rel=&quot;nofollow&quot; target=&quot;_NEW&quot;&gt;\nhttp://i.imgur.com/71BDxwb.png&lt;/a&gt; &lt;a href=&quot;\nhttp://i.imgur.com/CYkMEdi.png&quot; rel=&quot;nofollow&quot; target=&quot;_NEW&quot;&gt;\nhttp://i.imgur.com/CYkMEdi.png&lt;/a&gt; &lt;a href=&quot;\nhttp://i.imgur.com/FsXKI6N.png&quot; rel=&quot;nofollow&quot; target=&quot;_NEW&quot;&gt;\nhttp://i.imgur.com/FsXKI6N.png&lt;/a&gt; &lt;a href=&quot;\nhttp://i.imgur.com/TWwnmDf.png&quot; rel=&quot;nofollow&quot; target=&quot;_NEW&quot;&gt;\nhttp://i.imgur.com/TWwnmDf.png&lt;/a&gt;","torrent":{"xt":"urn:btih:8872d0953037e17f2aea306f8e503f5c83ce2882","amp;dn":"Prisoners+of+the+Sun+2013+DVDRip+x264+AC3-MiLLENiUM","amp;tr":["udp%3A%2F%2Ftracker.openbittorrent.com%3A80","udp%3A%2F%2Fopen.demonii.com%3A1337","udp%3A%2F%2Ftracker.coppersurfer.tk%3A6969","udp%3A%2F%2Fexodus.desync.com%3A6969"],"infoHash":"8872d0953037e17f2aea306f8e503f5c83ce2882","infoHashBuffer":{"type":"Buffer","data":[136,114,208,149,48,55,225,127,42,234,48,111,142,80,63,92,131,206,40,130]},"announce":[],"urlList":[]}}